<?xml version="1.0" standalone="no"?>
<!DOCTYPE svg PUBLIC "-//W3C//DTD SVG 20010904//EN"
 "http://www.w3.org/TR/2001/REC-SVG-20010904/DTD/svg10.dtd">
<svg version="1.0" xmlns="http://www.w3.org/2000/svg"
 width="348.000000pt" height="317.000000pt" viewBox="0 0 348.000000 317.000000"
 preserveAspectRatio="xMidYMid meet">

<g transform="translate(0.000000,317.000000) scale(0.100000,-0.100000)"
fill="#000000" stroke="none">
<path d="M1580 3115 c-144 -19 -188 -31 -315 -80 -178 -70 -322 -149 -385
-211 -41 -40 -52 -57 -42 -63 11 -6 10 -11 -3 -25 -21 -21 -43 -21 -47 1 -2
13 -16 4 -56 -36 -177 -177 -275 -413 -298 -721 -8 -113 -1 -105 -102 -102
-82 4 -90 2 -118 -21 -16 -13 -42 -28 -59 -34 -32 -10 -42 -34 -44 -110 -1
-36 5 -47 44 -87 25 -26 45 -51 45 -56 0 -5 12 3 28 17 15 14 50 36 79 49 28
13 54 28 58 34 10 17 55 31 76 25 19 -6 19 -8 2 -36 -10 -16 -23 -29 -30 -29
-7 0 -13 -4 -13 -9 0 -6 -25 -18 -55 -27 -30 -10 -55 -21 -55 -24 0 -7 87 4
111 14 10 4 20 3 23 -2 8 -13 -23 -38 -66 -51 -20 -7 -40 -21 -43 -31 -8 -24
-34 -34 -42 -15 -4 12 -8 13 -19 4 -12 -9 -17 -8 -27 4 -9 13 -19 15 -40 9
l-28 -7 21 -28 c22 -27 23 -27 128 -25 l107 3 0 -50 c0 -49 1 -50 45 -72 72
-36 123 -45 375 -63 174 -13 277 -4 407 36 119 36 132 38 161 20 25 -17 52
-23 219 -50 104 -17 146 -35 82 -36 -33 0 -43 -5 -54 -25 -14 -27 -46 -36 -36
-10 3 9 0 15 -10 15 -21 0 -29 -27 -13 -47 13 -15 11 -16 -12 -10 -25 6 -122
-16 -144 -33 -5 -4 -40 -13 -77 -20 -38 -7 -68 -16 -68 -21 0 -13 214 7 243
23 14 7 27 2 58 -26 21 -20 48 -36 59 -36 11 0 36 -15 56 -34 33 -31 34 -34
15 -39 -12 -3 -19 -1 -16 3 11 18 -92 -1 -145 -26 -114 -54 -146 -70 -170 -86
-25 -17 -145 -62 -211 -80 -48 -13 -85 5 -159 74 -60 56 -142 113 -207 142
-23 10 -44 25 -47 32 -6 16 0 16 169 14 127 -1 299 15 323 31 14 9 14 9 -3 3
-46 -16 -399 -16 -535 0 -178 22 -255 33 -312 48 -42 10 -50 10 -67 -7 -26
-22 -20 -31 24 -39 19 -4 35 -11 35 -17 0 -5 -21 -19 -47 -30 -27 -12 -55 -25
-63 -29 -17 -8 -124 -159 -118 -166 3 -2 24 3 48 11 66 23 72 21 69 -27 -5
-87 66 -234 123 -256 26 -9 29 -15 24 -36 -5 -21 -3 -24 10 -19 8 3 25 1 37
-5 70 -34 246 -75 233 -54 -4 6 -86 34 -173 58 -7 2 -13 8 -13 14 0 14 48 12
95 -5 22 -8 67 -14 101 -15 33 0 83 -7 111 -15 28 -8 61 -14 74 -14 13 1 71
-7 128 -17 99 -17 106 -17 153 0 32 11 54 14 61 8 23 -18 230 -29 437 -23 104
3 133 1 172 -15 40 -16 53 -17 90 -7 23 6 47 8 53 3 5 -4 64 -4 130 0 66 5
129 7 140 4 11 -3 38 1 60 9 29 10 50 11 74 5 22 -6 36 -6 40 0 15 24 92 41
211 46 71 3 166 14 220 26 189 43 232 51 236 47 10 -10 -111 -58 -196 -78 -52
-12 -115 -28 -140 -35 l-45 -13 61 2 c44 1 60 -1 57 -10 -3 -7 3 -10 14 -9 10
2 12 1 6 -1 -31 -11 5 -43 47 -43 17 0 20 -4 15 -21 -6 -16 -3 -20 17 -18 52
5 58 1 58 -39 0 -35 -3 -39 -51 -61 -50 -24 -83 -60 -57 -62 31 -2 -61 -31
-156 -49 -140 -27 -435 -72 -521 -79 -64 -6 -67 -7 -32 -13 21 -4 64 -3 95 2
138 23 196 31 337 46 285 29 409 61 487 126 37 32 58 119 63 263 2 64 7 121
12 128 6 7 16 28 23 47 7 19 19 42 27 51 7 8 16 30 19 47 l7 32 43 -25 c23
-14 56 -25 73 -25 26 0 32 5 39 33 10 37 6 57 -13 57 -18 0 -103 39 -145 66
-19 12 -78 39 -130 60 -52 20 -121 48 -153 61 -52 22 -172 47 -266 55 -19 2
-36 9 -39 16 -3 9 15 12 65 13 l68 1 -40 13 c-22 7 -68 21 -103 31 -65 18 -81
29 -65 45 6 6 19 2 35 -10 29 -23 46 -16 22 10 -10 11 -12 19 -5 24 22 13 10
26 -21 23 -40 -4 -48 16 -11 29 32 12 130 29 218 38 67 7 216 40 256 56 23 9
28 20 43 96 9 48 19 90 21 93 3 4 21 10 42 13 21 3 52 11 68 18 l30 12 -29 6
c-17 3 -30 11 -30 16 -1 6 -17 10 -36 11 -19 0 -45 6 -58 13 -13 7 -38 11 -57
10 -18 -2 -39 1 -46 7 -8 6 -22 14 -31 17 -10 4 -18 12 -18 18 0 8 5 7 16 -2
15 -12 16 -11 10 8 -6 18 -1 25 23 37 39 21 61 20 146 -3 101 -27 133 -32 140
-21 4 6 11 8 16 4 6 -4 1 -16 -12 -30 -29 -31 -21 -38 19 -18 45 22 110 100
118 142 14 74 -35 125 -98 103 -43 -15 -90 -14 -115 4 -11 8 -39 17 -62 21
-22 4 -41 8 -41 10 0 2 -14 65 -31 141 -50 226 -124 408 -222 551 -47 68 -156
189 -199 221 -33 25 -19 -8 22 -53 22 -23 37 -46 33 -49 -3 -4 1 -7 10 -7 12
0 17 -9 17 -30 0 -18 6 -33 15 -36 9 -4 15 -19 15 -38 0 -17 9 -46 21 -65 13
-21 19 -46 17 -70 -3 -31 -6 -36 -28 -36 -14 0 -31 -4 -37 -8 -16 -10 -17 -84
-2 -89 5 -2 12 -15 14 -28 2 -14 9 -40 16 -57 10 -25 11 -42 2 -75 -6 -24 -9
-58 -6 -75 5 -29 2 -33 -16 -33 -18 0 -21 -6 -21 -45 0 -43 -2 -46 -40 -61
-34 -14 -40 -21 -40 -45 0 -26 2 -28 19 -20 26 14 34 2 16 -26 -9 -13 -13 -28
-10 -33 3 -6 1 -10 -4 -10 -14 0 -51 -32 -51 -44 0 -5 48 -7 118 -4 139 7 98
-5 -73 -21 -66 -6 -185 -18 -265 -26 -80 -8 -178 -15 -217 -15 -40 0 -73 -4
-73 -9 0 -14 28 -21 86 -21 61 0 72 -14 19 -24 -42 -8 -69 -1 -107 27 -24 18
-30 18 -58 7 -21 -9 -34 -10 -38 -3 -14 21 -75 25 -372 24 -330 0 -778 27
-819 49 -14 7 -39 10 -61 6 -21 -3 -52 -3 -68 0 -34 7 -50 33 -30 46 10 6 10
8 1 8 -8 0 -13 15 -13 40 0 44 18 60 66 60 15 0 45 12 66 26 37 26 38 28 23
50 -22 34 -19 64 5 64 12 0 20 7 20 17 0 9 8 25 17 35 15 17 15 19 -3 33 -15
11 -17 17 -8 32 11 18 5 51 -19 101 -7 16 -7 28 0 45 6 12 18 54 27 93 20 88
36 124 56 125 10 0 11 2 3 6 -25 10 -12 49 30 90 57 57 67 70 67 86 0 8 7 20
15 27 8 7 15 18 15 26 0 7 6 17 13 21 7 4 20 20 30 36 10 15 24 27 33 27 8 0
13 4 10 9 -4 5 11 12 33 16 21 3 63 22 92 41 29 19 61 37 71 40 10 3 16 10 12
15 -14 23 19 39 80 39 34 0 67 5 72 10 18 18 245 54 334 52 30 0 109 -5 175
-11 66 -5 121 -8 123 -6 2 2 -13 9 -35 15 -60 18 -409 22 -533 5z m-905 -716
c8 -12 -23 -49 -42 -49 -18 0 -17 25 3 44 18 19 30 20 39 5z m-421 -608 c10
-11 31 -25 47 -31 30 -13 36 -24 19 -35 -17 -10 -89 15 -100 35 -24 45 1 68
34 31z m3119 -7 c-3 -8 -10 -14 -16 -14 -8 0 -8 -3 0 -11 17 -17 3 -49 -22
-49 -39 0 -86 21 -83 37 2 8 22 25 46 38 45 24 85 23 75 -1z m-2507 -79 c-22
-16 -67 -59 -116 -109 -19 -20 -40 -36 -47 -36 -25 0 -62 -46 -56 -70 5 -18 2
-21 -17 -18 -35 5 -46 30 -30 67 14 34 88 91 195 148 63 33 106 45 71 18z
m1956 -23 c-2 -14 2 -22 12 -22 8 0 17 -6 19 -12 3 -8 6 -6 6 5 1 25 21 21 21
-4 0 -17 -4 -20 -22 -15 -13 3 -31 6 -41 6 -10 0 -16 4 -12 10 3 5 -3 18 -14
29 -13 13 -16 21 -8 25 25 10 42 0 39 -22z m-265 7 c28 -10 73 -47 73 -59 0
-3 -16 -12 -35 -19 -31 -11 -39 -10 -62 4 -14 9 -27 25 -30 34 -2 9 -16 25
-31 34 l-27 16 42 1 c23 0 54 -5 70 -11z m-1297 -43 c0 -7 9 -16 20 -19 13 -3
18 -11 14 -20 -8 -23 -28 -27 -69 -16 -20 6 -43 8 -52 5 -31 -12 -7 29 27 46
42 22 60 23 60 4z m233 -76 c9 -11 25 -20 35 -20 10 0 19 -7 19 -15 0 -8 -4
-12 -8 -9 -4 2 -10 0 -14 -5 -4 -7 -15 -6 -31 1 -18 9 -33 9 -53 1 l-28 -10
-1 54 c-1 43 3 58 21 76 l21 21 11 -37 c6 -20 18 -46 28 -57z m381 51 c7 -10
-27 -21 -68 -21 -37 0 -23 17 19 23 17 2 33 5 37 6 4 0 9 -3 12 -8z m-716 -43
c18 -18 15 -34 -12 -51 -22 -15 -25 -14 -55 14 -21 19 -28 31 -19 33 7 3 20 7
28 9 26 9 46 7 58 -5z m1240 -8 c-12 -19 -38 -35 -38 -24 0 16 23 44 35 44 13
0 13 -3 3 -20z m-81 -74 c15 -18 23 -22 36 -14 14 7 17 5 17 -11 0 -12 -11
-26 -29 -35 -31 -16 -38 -13 -75 32 -19 22 -19 23 0 37 26 19 30 19 51 -9z
m-92 -56 c8 -16 20 -30 27 -33 18 -6 -54 -20 -83 -15 -21 3 -24 8 -21 38 2 19
9 38 14 41 19 12 49 -3 63 -31z m595 -68 c0 -19 -173 -73 -187 -58 -2 2 -1 14
2 28 5 20 11 23 40 20 18 -2 42 1 52 7 22 12 93 15 93 3z m-304 -151 c-4 -5 0
-11 6 -14 17 -6 -10 -58 -37 -72 -11 -6 -31 -17 -45 -25 -51 -28 -106 -29
-228 -4 -13 2 -20 9 -17 14 9 14 -4 50 -17 50 -6 0 -8 -13 -4 -34 8 -41 -1
-46 -74 -36 -30 4 -61 5 -67 3 -15 -6 -17 20 -4 45 5 9 12 25 15 34 4 15 20
17 119 17 l115 -1 6 -29 c7 -37 24 -38 28 -1 3 26 5 27 63 27 33 0 66 4 73 9
11 6 36 16 70 25 2 1 1 -3 -2 -8z m-582 -23 c-4 -7 -21 -28 -38 -45 -24 -25
-39 -33 -67 -33 -20 0 -42 -7 -49 -15 -10 -12 -16 -13 -26 -4 -8 6 -14 15 -14
20 0 16 57 47 99 53 25 3 54 12 65 20 26 19 39 20 30 4z m81 0 c10 -28 -11
-70 -45 -89 -30 -17 -40 -18 -65 -9 l-29 11 34 27 c19 15 44 37 55 48 23 25
44 30 50 12z m905 -213 c19 -3 54 -14 77 -25 23 -11 47 -20 54 -20 15 0 178
-80 185 -91 9 -15 -11 -10 -70 16 -31 14 -84 34 -117 45 -34 12 -71 27 -83 35
-19 12 -80 26 -131 30 -11 1 -30 2 -42 3 -13 1 -23 7 -23 12 0 9 45 8 150 -5z
m-1193 -59 c-21 -13 -57 -26 -81 -29 -23 -3 -63 -15 -89 -26 -43 -19 -47 -19
-47 -3 0 19 116 65 158 63 13 0 31 3 40 9 10 5 26 9 37 9 15 0 10 -6 -18 -23z
m-283 -101 c-4 -8 -10 -15 -15 -15 -4 0 -30 -13 -56 -28 -48 -28 -175 -82
-193 -82 -6 0 -10 8 -10 18 0 13 17 26 53 41 28 13 65 30 81 37 16 8 35 14 43
14 7 0 13 4 13 9 0 9 25 15 72 20 12 0 15 -4 12 -14z m886 -57 c16 -10 24 -10
39 -1 15 10 20 9 24 -2 3 -7 21 -16 39 -20 l33 -8 -25 -10 c-62 -24 -90 -38
-95 -47 -11 -18 -43 -10 -59 15 -9 14 -24 24 -33 23 -9 -2 -18 3 -20 10 -3 7
5 12 21 12 15 0 30 8 36 20 13 24 14 24 40 8z m458 0 c-6 -18 -28 -21 -28 -4
0 9 7 16 16 16 9 0 14 -5 12 -12z m132 -8 c0 -5 -4 -10 -10 -10 -5 0 -10 5
-10 10 0 6 5 10 10 10 6 0 10 -4 10 -10z m-170 -10 c0 -5 -6 -10 -14 -10 -8 0
-18 5 -21 10 -3 6 3 10 14 10 12 0 21 -4 21 -10z m-1212 -91 c-2 -6 -8 -10
-13 -10 -5 0 -11 4 -13 10 -2 6 4 11 13 11 9 0 15 -5 13 -11z"/>
<path d="M2426 1141 c-4 -5 -2 -12 3 -15 5 -4 12 -2 15 3 4 5 2 12 -3 15 -5 4
-12 2 -15 -3z"/>
<path d="M2322 3038 c2 -6 38 -25 79 -43 41 -17 112 -50 158 -74 46 -23 85
-40 87 -38 6 6 -102 80 -156 107 -45 23 -146 60 -162 60 -5 0 -8 -5 -6 -12z"/>
<path d="M2715 2140 c-4 -6 -3 -16 3 -22 6 -6 12 -6 17 2 4 6 3 16 -3 22 -6 6
-12 6 -17 -2z"/>
<path d="M2717 2033 c-13 -12 -7 -23 13 -23 13 0 18 5 14 15 -7 16 -17 19 -27
8z"/>
<path d="M748 1843 c7 -3 16 -2 19 1 4 3 -2 6 -13 5 -11 0 -14 -3 -6 -6z"/>
<path d="M3265 1610 c-3 -6 1 -7 9 -4 18 7 21 14 7 14 -6 0 -13 -4 -16 -10z"/>
<path d="M288 1503 c7 -3 16 -2 19 1 4 3 -2 6 -13 5 -11 0 -14 -3 -6 -6z"/>
<path d="M1550 1180 c0 -5 5 -10 10 -10 6 0 10 5 10 10 0 6 -4 10 -10 10 -5 0
-10 -4 -10 -10z"/>
<path d="M3265 1084 c-5 -1 -37 -8 -69 -14 -34 -7 -54 -15 -47 -20 7 -4 31 -3
54 2 23 5 52 10 65 11 22 2 29 12 15 20 -5 2 -12 3 -18 1z"/>
<path d="M2831 1071 c14 -5 56 -11 95 -14 l69 -6 -65 14 c-36 7 -78 14 -95 14
-30 -1 -30 -1 -4 -8z"/>
<path d="M3010 1050 c0 -6 7 -10 15 -10 8 0 15 2 15 4 0 2 -7 6 -15 10 -8 3
-15 1 -15 -4z"/>
<path d="M179 989 c-48 -46 -54 -54 -24 -33 54 38 113 94 99 94 -6 0 -40 -27
-75 -61z"/>
<path d="M3108 1043 c7 -3 16 -2 19 1 4 3 -2 6 -13 5 -11 0 -14 -3 -6 -6z"/>
<path d="M128 833 c7 -3 16 -2 19 1 4 3 -2 6 -13 5 -11 0 -14 -3 -6 -6z"/>
<path d="M415 386 c-8 -75 5 -108 60 -150 49 -38 109 -62 185 -76 36 -7 105
-22 155 -35 280 -73 529 -105 850 -110 l240 -3 -175 8 c-315 15 -785 83 -929
134 -24 9 -58 16 -75 16 -18 0 -36 4 -41 9 -6 4 -31 13 -58 20 -58 14 -146 60
-163 87 -9 13 -10 24 -4 34 8 12 11 13 19 1 6 -9 11 -10 15 -2 4 6 2 11 -4 11
-11 0 -8 30 6 83 4 13 -1 17 -20 17 -14 0 -28 5 -31 10 -14 23 -24 6 -30 -54z"/>
<path d="M2901 344 c0 -11 3 -14 6 -6 3 7 2 16 -1 19 -3 4 -6 -2 -5 -13z"/>
<path d="M2958 313 c-5 -25 3 -63 13 -63 5 0 9 18 9 40 0 40 -15 56 -22 23z"/>
</g>
</svg>
